<?xml version="1.0" encoding="UTF-8"?>
<svg version="1.1" xmlns="http://www.w3.org/2000/svg" width="462" height="100">
<path d="M0 0 C0.67169362 -0.00221977 1.34338723 -0.00443953 2.0354352 -0.00672656 C4.32674527 -0.01273775 6.61798524 -0.01119796 8.90930176 -0.00944519 C10.59198032 -0.01144879 12.27465857 -0.01373106 13.95733643 -0.01626396 C18.69372391 -0.02133233 23.43007745 -0.01840446 28.16646385 -0.01327872 C31.25380359 -0.01014713 34.34114104 -0.00860124 37.42848206 -0.0073185 C99.51994726 0.02734496 161.61043036 0.59546044 223.69897461 1.15240669 C227.37780748 1.18538496 231.05664049 1.21834838 234.73547363 1.251297 C236.10465297 1.26357314 236.10465297 1.26357314 237.5014925 1.27609728 C252.5308336 1.41054995 267.56025289 1.53191379 282.58974355 1.64831147 C298.22325573 1.7695848 313.85664451 1.90180314 329.48997164 2.04498929 C338.18992372 2.12441215 346.88985807 2.19919286 355.58995056 2.2615757 C362.92318148 2.3141919 370.25624201 2.37672082 377.58927315 2.45235888 C381.31741372 2.49051455 385.04543764 2.52396407 388.77371979 2.54461098 C392.81229894 2.56710697 396.85030831 2.61230079 400.88867188 2.65969849 C402.64649341 2.66409997 402.64649341 2.66409997 404.43982649 2.66859037 C411.49117841 2.77529067 417.91913777 3.14046079 423.56359863 7.85310364 C424.0186377 8.44091614 424.47367676 9.02872864 424.94250488 9.63435364 C425.41559082 10.22216614 425.88867676 10.80997864 426.37609863 11.41560364 C432.48051145 20.70951934 427.91215788 38.13754261 426.10632324 48.44758606 C425.68664705 50.85546275 425.29294 53.26666569 424.90148926 55.67927551 C424.63932219 57.2309628 424.3757051 58.78240596 424.11047363 60.33357239 C423.99471481 61.04502914 423.87895599 61.7564859 423.75968933 62.48950195 C422.4349606 69.878129 419.54753103 73.75056016 413.50500488 78.13435364 C408.42984988 80.27836034 403.69570028 80.54431096 398.2709198 80.72357178 C397.32129795 80.76049131 396.3716761 80.79741085 395.39327782 80.83544916 C381.5033602 81.33316305 367.60232398 81.48473409 353.70549548 81.67313421 C349.47268992 81.73128558 345.23994299 81.79345947 341.00718689 81.85508728 C332.74205341 81.97479759 324.4768727 82.09086092 316.21166889 82.20560164 C306.54588803 82.33990552 296.8801582 82.47772482 287.21442791 82.61561166 C269.93543182 82.86196976 252.65638938 83.10491294 235.37731934 83.34602356 C218.69400944 83.5788218 202.01074237 83.8144398 185.32751465 84.05305481 C167.08602224 84.3139535 148.84450838 84.57325273 130.60295504 84.8298592 C128.64767912 84.85736616 126.69240321 84.8848738 124.7371273 84.91238213 C123.77557514 84.92590769 122.81402298 84.93943325 121.82333288 84.95336868 C115.12290506 85.04771448 108.42249288 85.14312233 101.72208595 85.23893929 C93.52024985 85.35618231 85.31838963 85.47154865 77.11649624 85.58471579 C72.95006573 85.64224171 68.78364895 85.70046928 64.61725998 85.76093483 C56.44833397 85.87900258 48.27954728 85.98494156 40.1101217 86.06196428 C35.49288823 86.10727676 30.87663617 86.17797786 26.2599364 86.26112382 C23.05107515 86.31472257 19.84216369 86.35092188 16.63302531 86.38331871 C15.11596078 86.40217375 13.59896382 86.42803423 12.08215336 86.46159519 C2.84776066 86.66132597 -5.30114872 86.60125284 -12.61608887 80.31013489 C-13.05050293 79.69525208 -13.48491699 79.08036926 -13.93249512 78.44685364 C-14.38495605 77.84486145 -14.83741699 77.24286926 -15.30358887 76.62263489 C-18.18215401 70.61068081 -18.83004516 63.85322886 -19.11999512 57.25935364 C-19.1550415 56.49340881 -19.19008789 55.72746399 -19.22619629 54.93830872 C-19.34047299 52.00391557 -19.42184797 49.07007803 -19.49499512 46.13435364 C-19.51173279 45.46752563 -19.52847046 44.80069763 -19.54571533 44.11366272 C-19.65706254 39.47722727 -19.7337635 34.84141321 -19.78009033 30.20387268 C-19.79827508 28.62325732 -19.82299389 27.04270285 -19.85443115 25.46229553 C-19.89658871 23.21075013 -19.9118801 20.96046538 -19.92077637 18.70857239 C-19.93535889 17.39461487 -19.94994141 16.08065735 -19.96496582 14.72688293 C-19.41338958 10.5105482 -18.1530601 8.41414263 -15.49499512 5.13435364 C-10.17822404 1.11964895 -6.58506122 0.00958974 0 0 Z " fill="#2A5DAB" transform="translate(26.4949951171875,6.8656463623046875)"/>
<path d="M0 0 C3.33333333 0 6.66666667 0 10 0 C11.8253125 -0.03480469 11.8253125 -0.03480469 13.6875 -0.0703125 C15.1249957 -0.08887794 16.56249592 -0.10709514 18 -0.125 C19.08667969 -0.15013672 19.08667969 -0.15013672 20.1953125 -0.17578125 C24.02004734 -0.21106478 25.73874582 -0.17416946 29 2 C29 1.34 29 0.68 29 0 C36.59 0 44.18 0 52 0 C52 9.9 52 19.8 52 30 C49.03 30 46.06 30 43 30 C42.67 22.41 42.34 14.82 42 7 C39.03 6.67 36.06 6.34 33 6 C33 13.92 33 21.84 33 30 C29.7 30 26.4 30 23 30 C23 22.08 23 14.16 23 6 C20.03 6 17.06 6 14 6 C14 13.92 14 21.84 14 30 C10.7 30 7.4 30 4 30 C3.67 22.41 3.34 14.82 3 7 C2.01 6.67 1.02 6.34 0 6 C0 4.02 0 2.04 0 0 Z " fill="#F7F9FC" transform="translate(273,34)"/>
<path d="M0 0 C17.33333333 0 34.66666667 0 52 0 C52 9.9 52 19.8 52 30 C49.03 30 46.06 30 43 30 C42.67 22.41 42.34 14.82 42 7 C39.03 6.67 36.06 6.34 33 6 C33 13.92 33 21.84 33 30 C29.7 30 26.4 30 23 30 C23 22.08 23 14.16 23 6 C18.545 6.495 18.545 6.495 14 7 C13.67 14.59 13.34 22.18 13 30 C10.03 30 7.06 30 4 30 C3.67 22.41 3.34 14.82 3 7 C2.01 6.67 1.02 6.34 0 6 C0 4.02 0 2.04 0 0 Z " fill="#FBFCFD" transform="translate(215,34)"/>
<path d="M0 0 C10.56 0 21.12 0 32 0 C32 9.9 32 19.8 32 30 C21.44 30 10.88 30 0 30 C0 20.1 0 10.2 0 0 Z " fill="#FCFDFE" transform="translate(178,34)"/>
<path d="M0 0 C10.89 0 21.78 0 33 0 C33 5.28 33 10.56 33 16 C25.74 16.33 18.48 16.66 11 17 C11 18.98 11 20.96 11 23 C14.3 23 17.6 23 21 23 C21.33 22.01 21.66 21.02 22 20 C25.63 20 29.26 20 33 20 C33.09765625 26.93359375 33.09765625 26.93359375 33 29 C32 30 32 30 28.94897461 30.11352539 C27.60008729 30.11336634 26.25119386 30.10767612 24.90234375 30.09765625 C23.83905602 30.09553383 23.83905602 30.09553383 22.75428772 30.09336853 C20.48198288 30.08775443 18.20977525 30.07519963 15.9375 30.0625 C14.40039204 30.05748681 12.86328255 30.05292359 11.32617188 30.04882812 C7.55071333 30.0386297 3.77546596 30.01905732 0 30 C0 20.1 0 10.2 0 0 Z " fill="#F9FAFC" transform="translate(330,34)"/>
<path d="M0 0 C11.88 0 23.76 0 36 0 C36 1.98 36 3.96 36 6 C28.08 6 20.16 6 12 6 C12 7.98 12 9.96 12 12 C19.59 12 27.18 12 35 12 C35 18.27 35 24.54 35 31 C30.17612933 31.0229102 25.35244611 31.04283686 20.52856445 31.05493164 C18.88630536 31.05997174 17.24405077 31.06680378 15.60180664 31.07543945 C13.24624521 31.08751926 10.89074291 31.09323139 8.53515625 31.09765625 C7.79660904 31.10281754 7.05806183 31.10797882 6.2971344 31.11329651 C4.53101912 31.1134925 2.76502854 31.06194719 1 31 C0 30 0 30 -0.125 27 C0 24 0 24 1 23 C2.70772358 22.91286169 4.41898649 22.89299993 6.12890625 22.90234375 C7.68061523 22.90717773 7.68061523 22.90717773 9.26367188 22.91210938 C10.35228516 22.92048828 11.44089844 22.92886719 12.5625 22.9375 C14.2012207 22.94426758 14.2012207 22.94426758 15.87304688 22.95117188 C18.58208495 22.96300174 21.29101599 22.97948457 24 23 C23.67 21.68 23.34 20.36 23 19 C22.00818726 18.96241577 22.00818726 18.96241577 20.99633789 18.92407227 C18.01817695 18.80846898 15.0403608 18.68558246 12.0625 18.5625 C11.02158203 18.52318359 9.98066406 18.48386719 8.90820312 18.44335938 C7.42416992 18.38051758 7.42416992 18.38051758 5.91015625 18.31640625 C4.99371338 18.27974854 4.07727051 18.24309082 3.13305664 18.20532227 C1 18 1 18 0 17 C0 11.39 0 5.78 0 0 Z " fill="#F2F5F9" transform="translate(66,34)"/>
<path d="M0 0 C11.88 0 23.76 0 36 0 C36 1.65 36 3.3 36 5 C35 6 35 6 32.77514648 6.11352539 C31.81680908 6.10828857 30.85847168 6.10305176 29.87109375 6.09765625 C28.31938477 6.09282227 28.31938477 6.09282227 26.73632812 6.08789062 C25.64771484 6.07951172 24.55910156 6.07113281 23.4375 6.0625 C21.7987793 6.05573242 21.7987793 6.05573242 20.12695312 6.04882812 C17.41791505 6.03699826 14.70898401 6.02051543 12 6 C12 7.98 12 9.96 12 12 C12.6612085 11.99476318 13.32241699 11.98952637 14.00366211 11.98413086 C16.98159851 11.96342344 19.95951982 11.95035988 22.9375 11.9375 C23.97841797 11.92912109 25.01933594 11.92074219 26.09179688 11.91210938 C27.08115234 11.90888672 28.07050781 11.90566406 29.08984375 11.90234375 C30.00628662 11.89710693 30.92272949 11.89187012 31.86694336 11.88647461 C34 12 34 12 35 13 C35.09986975 15.84335048 35.13877881 18.65697163 35.125 21.5 C35.13080078 22.69689453 35.13080078 22.69689453 35.13671875 23.91796875 C35.12660767 29.87339233 35.12660767 29.87339233 34 31 C31.56339554 31.10082764 29.15575299 31.13972603 26.71875 31.1328125 C25.99006714 31.13376923 25.26138428 31.13472595 24.51062012 31.13571167 C22.9672029 31.13639335 21.42378283 31.13453988 19.88037109 31.13037109 C17.510026 31.12502262 15.13987041 31.13031642 12.76953125 31.13671875 C11.27343708 31.13605797 9.77734303 31.1347768 8.28125 31.1328125 C7.21094543 31.13584885 7.21094543 31.13584885 6.11901855 31.13894653 C1.11495191 31.11495191 1.11495191 31.11495191 0 30 C-0.125 27 -0.125 27 0 24 C1 23 1 23 3.22485352 22.88647461 C4.18319092 22.89171143 5.14152832 22.89694824 6.12890625 22.90234375 C7.68061523 22.90717773 7.68061523 22.90717773 9.26367188 22.91210938 C10.35228516 22.92048828 11.44089844 22.92886719 12.5625 22.9375 C14.2012207 22.94426758 14.2012207 22.94426758 15.87304688 22.95117188 C18.58208495 22.96300174 21.29101599 22.97948457 24 23 C23.67 21.68 23.34 20.36 23 19 C22.00818726 18.96241577 22.00818726 18.96241577 20.99633789 18.92407227 C18.01817695 18.80846898 15.0403608 18.68558246 12.0625 18.5625 C11.02158203 18.52318359 9.98066406 18.48386719 8.90820312 18.44335938 C7.42416992 18.38051758 7.42416992 18.38051758 5.91015625 18.31640625 C4.99371338 18.27974854 4.07727051 18.24309082 3.13305664 18.20532227 C1 18 1 18 0 17 C0 11.39 0 5.78 0 0 Z " fill="#F3F6FA" transform="translate(25,34)"/>
<path d="M0 0 C4.53897705 -0.02465392 9.07791543 -0.04283789 13.61694336 -0.05493164 C15.16219766 -0.0599714 16.70744716 -0.0668032 18.25268555 -0.07543945 C20.46925029 -0.08752076 22.68575218 -0.09323173 24.90234375 -0.09765625 C25.5971434 -0.10281754 26.29194305 -0.10797882 27.00779724 -0.11329651 C28.6722933 -0.11349277 30.33665499 -0.06189129 32 0 C33 1 33 1 33.1328125 3.03125 C33.13023437 3.8459375 33.12765625 4.660625 33.125 5.5 C33.12886719 6.72203125 33.12886719 6.72203125 33.1328125 7.96875 C33 10 33 10 32 11 C30.48071962 11.07179964 28.95832518 11.08392007 27.4375 11.0625 C26.61121094 11.05347656 25.78492188 11.04445313 24.93359375 11.03515625 C24.29550781 11.02355469 23.65742188 11.01195312 23 11 C22.67 9.35 22.34 7.7 22 6 C18.04 6 14.08 6 10 6 C10.33 11.61 10.66 17.22 11 23 C14.63 23 18.26 23 22 23 C22.33 21.68 22.66 20.36 23 19 C24.47906892 18.97310784 25.95827483 18.95365379 27.4375 18.9375 C28.26121094 18.92589844 29.08492187 18.91429688 29.93359375 18.90234375 C32 19 32 19 33 20 C33.09823937 21.66429051 33.12973631 23.33281931 33.125 25 C33.12886719 26.36125 33.12886719 26.36125 33.1328125 27.75 C33 30 33 30 32 31 C29.72052208 31.1002093 27.43792865 31.13081303 25.15625 31.1328125 C24.47195923 31.13376923 23.78766846 31.13472595 23.0826416 31.13571167 C21.63338123 31.1363933 20.18411782 31.13454023 18.73486328 31.13037109 C16.50937072 31.12502252 14.28407999 31.1303166 12.05859375 31.13671875 C10.65364539 31.13605797 9.24869715 31.1347768 7.84375 31.1328125 C6.55662109 31.13168457 5.26949219 31.13055664 3.94335938 31.12939453 C1 31 1 31 0 30 C-0.08783542 27.78144736 -0.10694609 25.56011504 -0.09765625 23.33984375 C-0.0962413 22.67537735 -0.09482635 22.01091095 -0.09336853 21.3263092 C-0.08775518 19.19666101 -0.07520054 17.06711661 -0.0625 14.9375 C-0.05748671 13.49674631 -0.05292351 12.05599097 -0.04882812 10.61523438 C-0.03778145 7.07678898 -0.02050792 3.53840461 0 0 Z " fill="#F2F5FA" transform="translate(140,34)"/>
<path d="M0 0 C1.64574566 -0.02688151 3.29161413 -0.04634123 4.9375 -0.0625 C5.85402344 -0.07410156 6.77054687 -0.08570313 7.71484375 -0.09765625 C10 0 10 0 11 1 C11.08713831 2.70772358 11.10700007 4.41898649 11.09765625 6.12890625 C11.09443359 7.16337891 11.09121094 8.19785156 11.08789062 9.26367188 C11.07951172 10.35228516 11.07113281 11.44089844 11.0625 12.5625 C11.05798828 13.65498047 11.05347656 14.74746094 11.04882812 15.87304688 C11.03699826 18.58208495 11.02051543 21.29101599 11 24 C12.98 23.67 14.96 23.34 17 23 C17.33 21.68 17.66 20.36 18 19 C19.64574566 18.97311849 21.29161413 18.95365877 22.9375 18.9375 C23.85402344 18.92589844 24.77054688 18.91429688 25.71484375 18.90234375 C28 19 28 19 29 20 C29.09823937 21.66429051 29.12973631 23.33281931 29.125 25 C29.12886719 26.36125 29.12886719 26.36125 29.1328125 27.75 C29 30 29 30 28 31 C26.01242972 31.09983058 24.0213248 31.13080753 22.03125 31.1328125 C20.82082031 31.13410156 19.61039063 31.13539062 18.36328125 31.13671875 C17.08839844 31.13285156 15.81351563 31.12898438 14.5 31.125 C13.22511719 31.12886719 11.95023438 31.13273437 10.63671875 31.13671875 C8.82107422 31.13478516 8.82107422 31.13478516 6.96875 31.1328125 C5.84919922 31.13168457 4.72964844 31.13055664 3.57617188 31.12939453 C1 31 1 31 0 30 C-0.08783542 27.78144736 -0.10694609 25.56011504 -0.09765625 23.33984375 C-0.0962413 22.67537735 -0.09482635 22.01091095 -0.09336853 21.3263092 C-0.08775518 19.19666101 -0.07520054 17.06711661 -0.0625 14.9375 C-0.05748671 13.49674631 -0.05292351 12.05599097 -0.04882812 10.61523438 C-0.03778145 7.07678898 -0.02050792 3.53840461 0 0 Z " fill="#F3F6FA" transform="translate(107,34)"/>
<path d="M0 0 C9.9 0 19.8 0 30 0 C30 3.3 30 6.6 30 10 C26.37 10 22.74 10 19 10 C19 8.68 19 7.36 19 6 C17.02 6 15.04 6 13 6 C13 13.92 13 21.84 13 30 C10.03 30 7.06 30 4 30 C3 29 3 29 2.88647461 26.68334961 C2.89432983 25.18300171 2.89432983 25.18300171 2.90234375 23.65234375 C2.90717773 22.03295898 2.90717773 22.03295898 2.91210938 20.38085938 C2.92048828 19.24455078 2.92886719 18.10824219 2.9375 16.9375 C2.94201172 15.79732422 2.94652344 14.65714844 2.95117188 13.48242188 C2.96300253 10.65489649 2.9794859 7.8274736 3 5 C2.01 5 1.02 5 0 5 C0 3.35 0 1.7 0 0 Z " fill="#F7F9FC" transform="translate(366,34)"/>
<path d="M0 0 C9.9 0 19.8 0 30 0 C30 5 30 5 27.8125 7.67578125 C26.884375 8.54589844 25.95625 9.41601562 25 10.3125 C23.6078125 11.63701172 23.6078125 11.63701172 22.1875 12.98828125 C21.465625 13.65214844 20.74375 14.31601562 20 15 C20.99 16.65 21.98 18.3 23 20 C18.38 20 13.76 20 9 20 C9 15.71 9 11.42 9 7 C10.65 7.99 12.3 8.98 14 10 C14.33 9.01 14.66 8.02 15 7 C10.05 6.67 5.1 6.34 0 6 C0 4.02 0 2.04 0 0 Z " fill="#F2F5F9" transform="translate(400,34)"/>
<path d="M0 0 C0.33 0 0.66 0 1 0 C1.33 1.65 1.66 3.3 2 5 C3.65 5.33 5.3 5.66 7 6 C7 6.66 7 7.32 7 8 C12.61 8 18.22 8 24 8 C24 10.31 24 12.62 24 15 C13.77 15 3.54 15 -7 15 C-8 10 -8 10 -6.3828125 7.32421875 C-5.26519531 6.01904297 -5.26519531 6.01904297 -4.125 4.6875 C-3.38507813 3.80449219 -2.64515625 2.92148437 -1.8828125 2.01171875 C-1.26148438 1.34785156 -0.64015625 0.68398438 0 0 Z " fill="#F5F7FB" transform="translate(406,50)"/>
<path d="M0 0 C3.35286458 0.03255208 6.70572917 0.06510417 10.05859375 0.09765625 C10.05859375 6.03765625 10.05859375 11.97765625 10.05859375 18.09765625 C5.43859375 18.09765625 0.81859375 18.09765625 -3.94140625 18.09765625 C-3.96824937 15.28509344 -3.98816813 12.47278384 -4.00390625 9.66015625 C-4.01228516 8.85771484 -4.02066406 8.05527344 -4.02929688 7.22851562 C-4.03792055 5.18470404 -3.99368775 3.14081723 -3.94140625 1.09765625 C-2.94140625 0.09765625 -2.94140625 0.09765625 0 0 Z " fill="#295CAB" transform="translate(190.94140625,39.90234375)"/>
<path d="M0 0 C3.96 0 7.92 0 12 0 C12 1.65 12 3.3 12 5 C8.04 5 4.08 5 0 5 C0 3.35 0 1.7 0 0 Z " fill="#295CAB" transform="translate(340,40)"/>
</svg>
